HIERARCHY
ROOT Hips
{
	OFFSET 0.000000 8.830580 0.000000
	CHANNELS 6 Xposition Yposition Zposition Zrotation Yrotation Xrotation 
	JOINT Spine
	{
		OFFSET 0.000000 0.010000 0.000000
		CHANNELS 3 Zrotation Yrotation Xrotation
		JOINT Spine1
		{
			OFFSET 0.000000 2.459130 0.000000
			CHANNELS 3 Zrotation Yrotation Xrotation
			JOINT Neck
			{
				OFFSET 0.000000 2.484630 0.000000
				CHANNELS 3 Zrotation Yrotation Xrotation
				JOINT Head_virtual
				{
					OFFSET 0.000000 0.000000 0.000000
					CHANNELS 3 Zrotation Yrotation Xrotation
					JOINT Head
					{
						OFFSET 0.000000 0.927525 0.000000
						CHANNELS 3 Zrotation Yrotation Xrotation
						End Site
						{
							OFFSET 0.000000 0.000000 0.000000
						}
					}
				}
				JOINT LeftUpArm_virtual
				{
					OFFSET 0.000000 0.000000 0.000000
					CHANNELS 3 Zrotation Yrotation Xrotation
					JOINT LeftUpArm
					{
						OFFSET 1.248820 0.000000 0.000000
						CHANNELS 3 Zrotation Yrotation Xrotation
						JOINT LeftForeArm
						{
							OFFSET 2.597580 0.000000 0.000000
							CHANNELS 3 Zrotation Yrotation Xrotation
							JOINT LeftHand
							{
								OFFSET 2.455420 0.000000 0.000000
								CHANNELS 3 Zrotation Yrotation Xrotation
								End Site
								{
									OFFSET 0.000000 0.000000 0.000000
								}
							}
						}
					}
				}
				JOINT RightUpArm_virtual
				{
					OFFSET -0.000000 -0.000000 -0.000000
					CHANNELS 3 Zrotation Yrotation Xrotation
					JOINT RightUpArm
					{
						OFFSET -1.248820 -0.000000 -0.000000
						CHANNELS 3 Zrotation Yrotation Xrotation
						JOINT RightForeArm
						{
							OFFSET -2.597580 -0.000000 -0.000000
							CHANNELS 3 Zrotation Yrotation Xrotation
							JOINT RightHand
							{
								OFFSET -2.455420 -0.000000 -0.000000
								CHANNELS 3 Zrotation Yrotation Xrotation
								End Site
								{
									OFFSET 0.000000 0.000000 0.000000
								}
							}
						}
					}
				}
			}
		}
	}
	JOINT LeftUpLeg
	{
		OFFSET 1.271939 0.000000 0.000000
		CHANNELS 3 Zrotation Yrotation Xrotation
		JOINT LeftLowLeg
		{
			OFFSET 0.000000 -4.342910 0.000000
			CHANNELS 3 Zrotation Yrotation Xrotation
			JOINT LeftFoot
			{
				OFFSET 0.000000 -4.487670 0.000000
				CHANNELS 3 Zrotation Yrotation Xrotation
				JOINT LeftToeBase
				{
					OFFSET 0.000000 0.000000 1.515070
					CHANNELS 3 Zrotation Yrotation Xrotation
					End Site
					{
						OFFSET 0.000000 0.000000 0.000000
					}
				}
			}
		}
	}
	JOINT RightUpLeg
	{
		OFFSET -1.271939 0.000000 0.000000
		CHANNELS 3 Zrotation Yrotation Xrotation
		JOINT RightLowLeg
		{
			OFFSET 0.000000 -4.342910 0.000000
			CHANNELS 3 Zrotation Yrotation Xrotation
			JOINT RightFoot
			{
				OFFSET 0.000000 -4.487670 0.000000
				CHANNELS 3 Zrotation Yrotation Xrotation
				JOINT RightToeBase
				{
					OFFSET 0.000000 0.000000 1.515070
					CHANNELS 3 Zrotation Yrotation Xrotation
					End Site
					{
						OFFSET 0.000000 0.000000 0.000000
					}
				}
			}
		}
	}
}
MOTION
Frames: 10
Frame Time: 0.041667
-18.645063 8.865673 51.057632 178.067836 6.511161 178.246161 2.196538 0.378086 -17.627197 -5.860928 3.243803 20.973385 0.000000 0.000000 0.000000 10.208906 -1.221513 12.980766 5.417651 0.114197 -85.551466 -27.070999 2.498820 7.614014 -43.644199 -9.063250 27.270500 0.000000 -21.830099 0.000000 13.900300 15.665200 -7.128320 31.609100 -3.430640 6.075012 46.050701 6.392580 12.350006 0.000000 21.219801 0.000000 2.066340 -8.734270 -12.944300 -4.013097 -12.725298 -1.788842 0.000000 0.000000 18.533300 -23.165238 10.447746 -10.124888 0.000000 0.000000 -15.491020 1.201402 13.362534 -2.195702 0.000000 0.000000 22.722099 32.749616 -7.192890 -16.049374 0.000000 0.000000 -16.540510 
-18.646487 8.866479 51.061606 178.126964 6.573284 178.111062 2.256005 0.440870 -17.469333 -5.872396 3.245537 21.010190 0.000000 0.000000 0.000000 10.267973 -1.239924 12.987673 5.468530 0.156365 -85.612376 -27.119900 2.479010 7.667999 -43.570400 -9.110580 27.235100 0.000000 -21.841600 0.000000 13.928400 15.646700 -7.186860 31.645700 -3.386700 6.105988 46.002899 6.425240 12.347992 0.000000 21.199900 0.000000 2.047400 -8.659800 -13.004900 -3.987257 -12.652468 -1.674576 0.000000 0.000000 18.552099 -23.189888 10.434567 -10.136460 0.000000 0.000000 -15.540217 1.217563 12.928605 -2.036343 0.000000 0.000000 22.563900 32.690896 -6.842354 -15.767591 0.000000 0.000000 -16.648880 
-18.647671 8.866400 51.063874 178.122156 6.595193 178.090588 2.243443 0.438975 -17.485830 -5.874866 3.270616 21.119042 0.000000 0.000000 0.000000 10.361643 -1.281587 12.890023 5.528978 0.213679 -85.579248 -27.110399 2.466060 7.660004 -43.574100 -9.122730 27.218300 0.000000 -21.867001 0.000000 13.966400 15.627700 -7.226530 31.623301 -3.330760 6.122986 46.018299 6.436660 12.346985 0.000000 21.240700 0.000000 2.043470 -8.682870 -13.027900 -4.003254 -12.658935 -1.679445 0.000000 0.000000 18.576200 -23.182499 10.471089 -10.140717 0.000000 0.000000 -15.548333 1.216295 12.998055 -2.037640 0.000000 0.000000 22.572300 32.612854 -6.947288 -15.784279 0.000000 0.000000 -16.642400 
-18.650889 8.864891 51.069972 178.131957 6.396298 177.882664 2.229271 0.316753 -17.193171 -5.898896 3.154674 21.093589 0.000000 0.000000 0.000000 10.443637 -1.323929 12.829879 5.575134 0.255855 -85.556845 -27.101200 2.455490 7.536011 -43.615299 -9.037120 27.271000 0.000000 -21.882799 0.000000 13.994100 15.651800 -7.321360 31.594700 -3.299100 6.208008 46.016800 6.506900 12.362000 0.000000 21.249399 0.000000 2.022110 -8.594150 -13.132000 -4.058848 -12.925143 -1.613932 0.000000 0.000000 18.767500 -23.166622 10.538018 -10.195145 0.000000 0.000000 -15.542782 1.306915 13.265493 -1.909242 0.000000 0.000000 22.769899 32.629960 -7.311519 -16.001658 0.000000 0.000000 -16.631130 
-18.652548 8.864611 51.072925 178.139300 6.408978 177.872151 2.247899 0.343163 -17.196218 -5.958820 3.155816 21.181265 0.000000 0.000000 0.000000 10.577720 -1.371208 12.786196 5.594177 0.342078 -85.529338 -27.066900 2.515750 7.700989 -43.603001 -9.268930 27.176701 0.000000 -21.876801 0.000000 13.957600 15.723800 -7.515830 31.613400 -3.335210 6.325989 45.999199 6.678510 12.355988 0.000000 21.270300 0.000000 2.038190 -8.581740 -13.216700 -4.065275 -12.970915 -1.663641 0.000000 0.000000 18.856501 -23.185558 10.578818 -10.231221 0.000000 0.000000 -15.512085 1.268427 13.015551 -1.958566 0.000000 0.000000 22.820200 32.734765 -7.012716 -15.905504 0.000000 0.000000 -16.546030 
-18.653419 8.865070 51.073508 178.143609 6.529523 177.937983 2.282353 0.427119 -17.314097 -6.011887 3.200333 21.268277 0.000000 0.000000 0.000000 10.657454 -1.386696 12.824300 5.634750 0.392512 -85.520631 -27.030399 2.421060 7.631012 -43.634102 -9.130970 27.073500 0.000000 -21.935101 0.000000 13.784600 15.632300 -6.600290 31.633200 -3.319440 6.350006 45.993000 6.715650 12.398987 0.000000 21.298800 0.000000 2.018730 -8.642870 -13.298500 -4.051985 -12.869652 -1.726206 0.000000 0.000000 18.862301 -23.245778 10.570113 -10.247415 0.000000 0.000000 -15.469192 1.227673 12.977143 -2.053591 0.000000 0.000000 22.817900 32.643320 -6.931692 -15.802994 0.000000 0.000000 -16.562340 
-18.655255 8.864422 51.076052 178.119770 6.557976 177.873176 2.263992 0.413249 -17.281864 -6.029325 3.209407 21.358338 0.000000 0.000000 0.000000 10.731275 -1.408895 12.824884 5.694405 0.429418 -85.466754 -27.018101 2.485250 7.726013 -43.629902 -9.325480 27.009399 0.000000 -21.909201 0.000000 13.815200 15.834200 -7.686880 31.621901 -3.344270 6.414001 45.980900 6.828600 12.436005 0.000000 21.357700 0.000000 1.989620 -8.678240 -13.307700 -4.095381 -12.842300 -1.705115 0.000000 0.000000 18.916599 -23.220223 10.587684 -10.243328 0.000000 0.000000 -15.515441 1.235385 13.235778 -2.055628 0.000000 0.000000 22.932899 32.650506 -7.113028 -15.919030 0.000000 0.000000 -16.660530 
-18.657626 8.863975 51.078785 178.109177 6.648557 177.839107 2.267821 0.423396 -17.315689 -6.067948 3.219932 21.463160 0.000000 0.000000 0.000000 10.824732 -1.416188 12.966093 5.794589 0.469946 -85.394768 -26.985300 2.441130 7.730011 -43.653999 -9.309760 26.959000 0.000000 -21.908501 0.000000 13.904600 15.790900 -7.798900 31.611500 -3.326590 6.483002 45.983299 6.914000 12.459015 0.000000 21.399900 0.000000 1.923340 -8.698540 -13.351600 -4.129864 -12.826719 -1.734003 0.000000 0.000000 19.023800 -23.214243 10.654953 -10.285722 0.000000 0.000000 -15.487091 1.217597 13.418661 -2.081539 0.000000 0.000000 23.004499 32.702834 -7.109690 -15.947246 0.000000 0.000000 -16.606150 
-18.659374 8.864344 51.079942 178.109155 6.877972 177.843637 2.304245 0.527006 -17.352858 -6.082664 3.281144 21.503700 0.000000 0.000000 0.000000 10.885935 -1.454679 13.117797 5.791832 0.471202 -85.379212 -27.021700 2.430370 7.709991 -43.599998 -9.274960 26.920200 0.000000 -21.955200 0.000000 13.846400 15.836300 -7.827360 31.599001 -3.281030 6.369995 46.023602 6.770490 12.368988 0.000000 21.418600 0.000000 1.898890 -8.524110 -13.155500 -4.142778 -12.655747 -1.724992 0.000000 0.000000 19.021000 -23.216283 10.720989 -10.314256 0.000000 0.000000 -15.501967 1.166159 13.455717 -2.120246 0.000000 0.000000 22.976801 32.639709 -6.938496 -15.815123 0.000000 0.000000 -16.692950 
-18.661575 8.864448 51.080385 178.104991 7.037920 177.839862 2.322367 0.560344 -17.402359 -6.076558 3.309272 21.561548 0.000000 0.000000 0.000000 10.911285 -1.458846 13.238863 5.785591 0.462551 -85.295737 -27.016500 2.439680 7.671997 -43.625198 -9.251590 26.897600 0.000000 -21.989700 0.000000 13.674800 15.793700 -7.254000 31.600100 -3.305300 6.343994 46.011200 6.783200 12.335999 0.000000 21.429800 0.000000 1.899730 -8.488800 -13.134200 -4.166206 -12.552716 -1.736439 0.000000 0.000000 19.071501 -23.230035 10.772411 -10.349340 0.000000 0.000000 -15.556313 1.146819 13.747237 -2.120543 0.000000 0.000000 22.952000 32.649570 -6.961545 -15.818842 0.000000 0.000000 -16.742220 
